{"title":"The Change Up 2011 UNRATED BRRiP XviD AC3 - MiSTERE","uid":6774671,"size":4186930167,"categoryP":"video","categoryS":"movies","magnet":"?xt=urn:btih:f0d4f76a544aa4f946fefda15f40619fc2b07cb3&amp;dn=The+Change+Up+2011+UNRATED+BRRiP+XviD+AC3+-+MiSTERE&amp;tr=udp%3A%2F%2Ftracker.openbittorrent.com%3A80&amp;tr=udp%3A%2F%2Fopen.demonii.com%3A1337&amp;tr=udp%3A%2F%2Ftracker.coppersurfer.tk%3A6969&amp;tr=udp%3A%2F%2Fexodus.desync.com%3A6969","seeders":0,"leechers":1,"uploader":"TvTeam","files":144,"time":1319701745,"description":". \n &lt;a href=&quot;\nhttp://www.torrenting.com&quot; rel=&quot;nofollow&quot; target=&quot;_NEW&quot;&gt;\nhttp://www.torrenting.com&lt;/a&gt;          :     Once &amp; For all ;)\n\n\n               www . Torrenting . Com \n\n(((((((((((((= Enjoy No RAR releases =))))))))))))))))))))\n\n\n...................................NFO:....................................\n\n.\nThe Change Up 2011 UNRATED BRRiP XviD AC3 - MiSTERE\n\nSOURCE: The.Change-Up.UNRATED.720p.Bluray.x264-MHD \n\nVideo\nID                               : 0\nFormat                           : MPEG-4 Visual\nFormat profile                   : Advanced Simple@L5\nFormat settings, BVOP            : 2\nFormat settings, QPel            : No\nFormat settings, GMC             : No warppoints\nFormat settings, Matrix          : Default (H.263)\nMuxing mode                      : Packed bitstream\nCodec ID                         : XVID\nCodec ID/Hint                    : XviD\nDuration                         : 1h 58mn\nBit rate                         : 2 087 Kbps\nWidth                            : 720 pixels\nHeight                           : 304 pixels\nDisplay aspect ratio             : 2.35:1\nFrame rate                       : 23.976 fps\nColor space                      : YUV\nChroma subsampling               : 4:2:0\nBit depth                        : 8 bits\nScan type                        : Progressive\nCompression mode                 : Lossy\nBits/(Pixel*Frame)               : 0.398\nStream size                      : 1.72 GiB (89%)\nWriting library                  : XviD 64\n\nAudio\nID                               : 1\nFormat                           : AC-3\nFormat/Info                      : Audio Coding 3\nMode extension                   : CM (complete main)\nCodec ID                         : 2000\nDuration                         : 1h 58mn\nBit rate mode                    : Constant\nBit rate                         : 256 Kbps\nChannel(s)                       : 6 channels\nChannel positions                : Front: L C R, Side: L R, LFE\nSampling rate                    : 48.0 KHz\nBit depth                        : 16 bits\nCompression mode                 : Lossy\nStream size                      : 216 MiB (11%)\nAlignment                        : Aligned on interleaves\nInterleave, duration             : 42 ms (1.00 video frame)\n\n \nNotes:\nResized and sharpened video \nthen adjusted the RGB abit\n\n[IMG]http://i.imgur.com/T5rM4.png[/IMG]\n[IMG]http://i.imgur.com/ZyKyn.png[/IMG]\n[IMG]http://i.imgur.com/LdWH5.png[/IMG]\n[IMG]http://i.imgur.com/sy1UM.png[/IMG]\n[IMG]http://i.imgur.com/SWmjr.png[/IMG]","torrent":{"xt":"urn:btih:f0d4f76a544aa4f946fefda15f40619fc2b07cb3","amp;dn":"The+Change+Up+2011+UNRATED+BRRiP+XviD+AC3+-+MiSTERE","amp;tr":["udp%3A%2F%2Ftracker.openbittorrent.com%3A80","udp%3A%2F%2Fopen.demonii.com%3A1337","udp%3A%2F%2Ftracker.coppersurfer.tk%3A6969","udp%3A%2F%2Fexodus.desync.com%3A6969"],"infoHash":"f0d4f76a544aa4f946fefda15f40619fc2b07cb3","infoHashBuffer":{"type":"Buffer","data":[240,212,247,106,84,74,164,249,70,254,253,161,95,64,97,159,194,176,124,179]},"announce":[],"urlList":[]}}